<mxfile host="Electron" modified="2023-09-07T14:21:05.638Z" agent="Mozilla/5.0 (X11; Linux x86_64) AppleWebKit/537.36 (KHTML, like Gecko) draw.io/21.6.8 Chrome/114.0.5735.289 Electron/25.5.0 Safari/537.36" etag="DfSRIRS2PBCbJTWflTZ7" version="21.6.8" type="device">
  <diagram name="Pagina-1" id="BOgZcnKm7G9I_sAigg9_">
    <mxGraphModel dx="768" dy="480" grid="1" gridSize="10" guides="1" tooltips="1" connect="1" arrows="1" fold="1" page="1" pageScale="1" pageWidth="827" pageHeight="1169" math="0" shadow="0">
      <root>
        <mxCell id="0" />
        <mxCell id="1" parent="0" />
        <mxCell id="4pyOnzPMmt1goGjwH3mI-1" value="Serverproces" style="text;html=1;strokeColor=none;fillColor=none;align=left;verticalAlign=top;whiteSpace=wrap;rounded=0;spacing=8;" parent="1" vertex="1">
          <mxGeometry x="400" y="130" width="80" height="80" as="geometry" />
        </mxCell>
        <mxCell id="4pyOnzPMmt1goGjwH3mI-2" value="" style="endArrow=classic;html=1;rounded=0;endFill=1;startArrow=none;startFill=0;strokeWidth=1;shape=flexArrow;endSize=5.153846153846154;endWidth=10;fillColor=#000000;strokeColor=none;fontSize=11;fillStyle=solid;width=5;" parent="1" source="4pyOnzPMmt1goGjwH3mI-6" target="4pyOnzPMmt1goGjwH3mI-3" edge="1">
          <mxGeometry relative="1" as="geometry">
            <mxPoint x="220" y="136" as="sourcePoint" />
            <mxPoint x="166" y="160" as="targetPoint" />
          </mxGeometry>
        </mxCell>
        <mxCell id="4pyOnzPMmt1goGjwH3mI-3" value="" style="shape=parallelogram;perimeter=parallelogramPerimeter;whiteSpace=wrap;html=1;fixedSize=1;fillOpacity=100;arcSize=20;size=30;" parent="1" vertex="1">
          <mxGeometry x="400" y="50" width="80" height="80" as="geometry" />
        </mxCell>
        <mxCell id="4pyOnzPMmt1goGjwH3mI-4" value="Specificatie-verzamelproces" style="text;html=1;strokeColor=none;fillColor=none;align=left;verticalAlign=top;whiteSpace=wrap;rounded=0;spacing=8;" parent="1" vertex="1">
          <mxGeometry x="40" y="140" width="110" height="80" as="geometry" />
        </mxCell>
        <mxCell id="4pyOnzPMmt1goGjwH3mI-5" value="" style="group" parent="1" vertex="1" connectable="0">
          <mxGeometry x="40" y="40" width="110" height="100" as="geometry" />
        </mxCell>
        <mxCell id="4pyOnzPMmt1goGjwH3mI-6" value="" style="shape=parallelogram;perimeter=parallelogramPerimeter;whiteSpace=wrap;html=1;fixedSize=1;fillOpacity=100;arcSize=20;size=30;" parent="4pyOnzPMmt1goGjwH3mI-5" vertex="1">
          <mxGeometry x="20" width="90" height="100" as="geometry" />
        </mxCell>
        <mxCell id="4pyOnzPMmt1goGjwH3mI-7" value="" style="rounded=0;whiteSpace=wrap;html=1;" parent="4pyOnzPMmt1goGjwH3mI-5" vertex="1">
          <mxGeometry x="20" y="25" width="50" height="10" as="geometry" />
        </mxCell>
        <mxCell id="4pyOnzPMmt1goGjwH3mI-8" value="" style="rounded=0;whiteSpace=wrap;html=1;" parent="4pyOnzPMmt1goGjwH3mI-5" vertex="1">
          <mxGeometry x="10" y="45" width="50" height="10" as="geometry" />
        </mxCell>
        <mxCell id="4pyOnzPMmt1goGjwH3mI-9" value="" style="rounded=0;whiteSpace=wrap;html=1;" parent="4pyOnzPMmt1goGjwH3mI-5" vertex="1">
          <mxGeometry y="65" width="50" height="10" as="geometry" />
        </mxCell>
      </root>
    </mxGraphModel>
  </diagram>
</mxfile>
